# Created using Spin 3D

# Vertex Array
v 14.231 -98.982 225.000
v 14.231 -98.982 -225.000
v 0.000 -100.000 -225.000
v 0.000 -100.000 225.000
v -14.231 -98.982 -225.000
v 0.000 0.000 -225.000
v 0.000 -50.000 225.000
v -8.682 -49.240 225.000
v -14.231 -98.982 225.000
v 28.173 -95.949 225.000
v 28.173 -95.949 -225.000
v -28.173 -95.949 -225.000
v 8.682 -49.240 225.000
v -28.173 -95.949 225.000
v -17.101 -46.985 225.000
v 41.542 -90.963 225.000
v 41.542 -90.963 -225.000
v -41.542 -90.963 -225.000
v 17.101 -46.985 225.000
v -41.542 -90.963 225.000
v 54.064 -84.125 225.000
v 54.064 -84.125 -225.000
v -54.064 -84.125 -225.000
v 25.000 -43.301 225.000
v -54.064 -84.125 225.000
v -25.000 -43.301 225.000
v 65.486 -75.575 225.000
v 65.486 -75.575 -225.000
v -65.486 -75.575 -225.000
v -65.486 -75.575 225.000
v -32.139 -38.302 225.000
v 75.575 -65.486 225.000
v 75.575 -65.486 -225.000
v -75.575 -65.486 -225.000
v 32.139 -38.302 225.000
v -75.575 -65.486 225.000
v -38.302 -32.139 225.000
v 84.125 -54.064 225.000
v 84.125 -54.064 -225.000
v -84.125 -54.064 -225.000
v 38.302 -32.139 225.000
v -84.125 -54.064 225.000
v -43.301 -25.000 225.000
v 90.963 -41.542 225.000
v 90.963 -41.541 -225.000
v -90.963 -41.541 -225.000
v 43.301 -25.000 225.000
v -90.963 -41.542 225.000
v 0.000 -0.000 175.000
v 8.682 -49.240 175.000
v 0.000 -50.000 175.000
v -8.682 -49.240 175.000
v 17.101 -46.985 175.000
v -17.101 -46.985 175.000
v 25.000 -43.301 175.000
v -25.000 -43.301 175.000
v 32.139 -38.302 175.000
v -32.139 -38.302 175.000
v 95.949 -28.173 225.000
v 95.949 -28.173 -225.000
v -95.949 -28.173 -225.000
v 46.985 -17.101 225.000
v -95.949 -28.173 225.000
v -46.985 -17.101 225.000
v 38.302 -32.139 175.000
v -38.302 -32.139 175.000
v 43.301 -25.000 175.000
v -43.301 -25.000 175.000
v 98.982 -14.231 225.000
v 98.982 -14.231 -225.000
v -98.982 -14.231 -225.000
v -98.982 -14.231 225.000
v -49.240 -8.682 225.000
v 46.985 -17.101 175.000
v -46.985 -17.101 175.000
v 49.240 -8.682 175.000
v 49.240 -8.682 225.000
v -49.240 -8.682 175.000
v 100.000 -0.000 225.000
v 100.000 0.000 -225.000
v -100.000 0.000 -225.000
v -100.000 -0.000 225.000
v -50.000 -0.000 225.000
v 50.000 -0.000 175.000
v 50.000 -0.000 225.000
v -50.000 -0.000 175.000
v -49.240 8.682 225.000
v -49.240 8.682 175.000
v -98.982 14.231 -225.000
v -98.982 14.231 225.000
v 98.982 14.231 225.000
v 49.240 8.682 225.000
v 46.985 17.101 175.000
v 49.240 8.682 175.000
v 32.139 38.302 175.000
v 38.302 32.139 175.000
v 43.301 25.000 175.000
v 8.682 49.240 175.000
v 17.101 46.985 175.000
v 25.000 43.301 175.000
v -17.101 46.985 175.000
v -8.682 49.240 175.000
v -0.000 50.000 175.000
v -38.302 32.139 175.000
v -32.139 38.302 175.000
v -25.000 43.301 175.000
v -46.985 17.101 175.000
v -43.301 25.000 175.000
v -95.949 28.173 -225.000
v -75.575 65.486 -225.000
v -84.125 54.064 -225.000
v -90.963 41.542 -225.000
v -41.542 90.963 -225.000
v -54.064 84.125 -225.000
v -65.486 75.575 -225.000
v -0.000 100.000 -225.000
v -14.231 98.982 -225.000
v -28.173 95.949 -225.000
v 41.542 90.963 -225.000
v 28.173 95.949 -225.000
v 14.231 98.982 -225.000
v 75.575 65.486 -225.000
v 65.486 75.575 -225.000
v 54.064 84.125 -225.000
v 95.949 28.173 -225.000
v 90.963 41.542 -225.000
v 84.125 54.064 -225.000
v 98.982 14.231 -225.000
v 46.985 17.101 225.000
v 95.949 28.173 225.000
v -46.985 17.101 225.000
v -95.949 28.173 225.000
v 43.301 25.000 225.000
v 90.963 41.541 225.000
v -43.301 25.000 225.000
v -90.963 41.541 225.000
v 38.302 32.139 225.000
v 75.575 65.486 225.000
v 84.125 54.064 225.000
v -38.302 32.139 225.000
v -84.125 54.064 225.000
v 32.139 38.302 225.000
v 65.486 75.575 225.000
v -32.139 38.302 225.000
v -75.575 65.486 225.000
v 25.000 43.301 225.000
v 54.064 84.125 225.000
v -25.000 43.301 225.000
v -65.486 75.575 225.000
v 17.101 46.985 225.000
v 41.542 90.963 225.000
v -17.101 46.985 225.000
v -41.542 90.963 225.000
v -54.064 84.125 225.000
v 8.682 49.240 225.000
v 14.231 98.982 225.000
v 28.173 95.949 225.000
v -8.682 49.240 225.000
v -28.173 95.949 225.000
v -0.000 50.000 225.000
v -0.000 100.000 225.000
v -14.231 98.982 225.000

# Normal Array
vn 0.071 -0.997 -0.000
vn 0.071 -0.997 -0.000
vn -0.071 -0.997 -0.000
vn -0.000 0.000 -1.000
vn 0.000 -0.000 -1.000
vn 0.000 0.000 1.000
vn 0.000 0.000 1.000
vn -0.000 0.000 1.000
vn -0.071 -0.997 -0.000
vn 0.213 -0.977 -0.000
vn 0.213 -0.977 -0.000
vn -0.000 0.000 -1.000
vn -0.213 -0.977 -0.000
vn 0.000 0.000 -1.000
vn 0.000 0.000 1.000
vn -0.000 0.000 1.000
vn -0.213 -0.977 -0.000
vn 0.000 0.000 1.000
vn -0.000 0.000 1.000
vn 0.349 -0.937 -0.000
vn 0.349 -0.937 -0.000
vn -0.000 0.000 -1.000
vn -0.349 -0.937 -0.000
vn 0.000 0.000 -1.000
vn 0.000 0.000 1.000
vn -0.000 0.000 1.000
vn -0.349 -0.937 -0.000
vn -0.000 0.000 1.000
vn 0.479 -0.878 -0.000
vn 0.479 -0.878 -0.000
vn -0.000 0.000 -1.000
vn -0.479 -0.878 -0.000
vn 0.000 0.000 -1.000
vn -0.000 0.000 1.000
vn 0.000 0.000 1.000
vn -0.479 -0.878 -0.000
vn 0.000 0.000 1.000
vn -0.000 0.000 1.000
vn 0.599 -0.801 -0.000
vn 0.599 -0.801 -0.000
vn -0.000 0.000 -1.000
vn -0.599 -0.801 -0.000
vn 0.000 0.000 -1.000
vn 0.000 0.000 1.000
vn -0.599 -0.801 -0.000
vn 0.000 0.000 1.000
vn -0.000 0.000 1.000
vn 0.707 -0.707 -0.000
vn 0.707 -0.707 -0.000
vn -0.000 0.000 -1.000
vn -0.707 -0.707 -0.000
vn 0.000 0.000 -1.000
vn 0.000 0.000 1.000
vn -0.000 0.000 1.000
vn -0.707 -0.707 -0.000
vn 0.000 0.000 1.000
vn -0.000 0.000 1.000
vn 0.801 -0.599 -0.000
vn 0.801 -0.599 -0.000
vn -0.000 0.000 -1.000
vn -0.801 -0.599 -0.000
vn 0.000 0.000 -1.000
vn 0.000 0.000 1.000
vn -0.000 0.000 1.000
vn -0.801 -0.599 -0.000
vn 0.000 0.000 1.000
vn -0.000 0.000 1.000
vn 0.878 -0.479 -0.000
vn 0.878 -0.479 -0.000
vn -0.000 0.000 -1.000
vn -0.878 -0.479 -0.000
vn 0.000 0.000 -1.000
vn 0.000 0.000 1.000
vn -0.000 0.000 1.000
vn -0.878 -0.479 -0.000
vn -0.000 0.000 1.000
vn 0.000 0.000 1.000
vn -0.000 0.000 1.000
vn 0.087 0.996 0.000
vn -0.087 0.996 0.000
vn -0.087 0.996 0.000
vn 0.087 0.996 0.000
vn 0.000 0.000 1.000
vn -0.259 0.966 0.000
vn -0.259 0.966 0.000
vn -0.000 0.000 1.000
vn 0.259 0.966 0.000
vn 0.259 0.966 0.000
vn 0.000 0.000 1.000
vn -0.423 0.906 0.000
vn -0.423 0.906 0.000
vn -0.000 0.000 1.000
vn 0.423 0.906 0.000
vn 0.423 0.906 0.000
vn 0.000 0.000 1.000
vn -0.574 0.819 0.000
vn -0.574 0.819 0.000
vn -0.000 0.000 1.000
vn 0.574 0.819 0.000
vn 0.574 0.819 0.000
vn 0.937 -0.349 -0.000
vn 0.937 -0.349 -0.000
vn -0.000 0.000 -1.000
vn -0.937 -0.349 -0.000
vn 0.000 0.000 -1.000
vn -0.000 0.000 1.000
vn 0.000 0.000 1.000
vn -0.937 -0.349 -0.000
vn 0.000 0.000 1.000
vn -0.000 0.000 1.000
vn 0.000 0.000 1.000
vn -0.707 0.707 0.000
vn -0.707 0.707 0.000
vn -0.000 0.000 1.000
vn 0.707 0.707 0.000
vn 0.707 0.707 0.000
vn 0.000 0.000 1.000
vn -0.819 0.574 0.000
vn -0.819 0.574 0.000
vn -0.000 0.000 1.000
vn 0.819 0.574 0.000
vn 0.819 0.574 0.000
vn 0.977 -0.213 -0.000
vn 0.977 -0.213 -0.000
vn -0.000 0.000 -1.000
vn -0.977 -0.213 -0.000
vn 0.000 0.000 -1.000
vn -0.000 0.000 1.000
vn -0.977 -0.213 -0.000
vn 0.000 0.000 1.000
vn -0.000 0.000 1.000
vn 0.000 0.000 1.000
vn -0.906 0.423 0.000
vn -0.906 0.423 0.000
vn -0.000 0.000 1.000
vn 0.906 0.423 0.000
vn 0.906 0.423 0.000
vn 0.000 0.000 1.000
vn -0.966 0.259 0.000
vn -0.966 0.259 0.000
vn -0.000 0.000 1.000
vn 0.966 0.259 0.000
vn 0.000 0.000 1.000
vn 0.966 0.259 0.000
vn 0.997 -0.071 -0.000
vn 0.997 -0.071 -0.000
vn -0.000 0.000 -1.000
vn -0.997 -0.071 -0.000
vn -0.000 0.000 -1.000
vn -0.000 0.000 1.000
vn -0.997 -0.071 -0.000
vn 0.000 0.000 1.000
vn -0.000 0.000 1.000
vn -0.000 0.000 1.000
vn -0.996 0.087 0.000
vn -0.996 0.087 0.000
vn -0.000 0.000 1.000
vn 0.996 0.087 0.000
vn -0.000 0.000 1.000
vn 0.996 0.087 0.000
vn 0.000 0.000 1.000
vn 0.996 -0.087 -0.000
vn 0.996 -0.087 -0.000
vn -0.997 0.071 0.000
vn -0.997 0.071 0.000
vn 0.997 0.071 0.000
vn -0.000 0.000 1.000
vn 0.000 0.000 1.000
vn -0.996 -0.087 -0.000
vn 0.000 0.000 1.000
vn 0.000 0.000 1.000
vn 0.000 0.000 1.000
vn 0.000 0.000 1.000
vn 0.000 0.000 1.000
vn 0.000 0.000 1.000
vn 0.000 0.000 1.000
vn 0.000 0.000 1.000
vn 0.000 0.000 1.000
vn 0.000 0.000 1.000
vn -0.000 0.000 1.000
vn -0.000 0.000 1.000
vn 0.000 0.000 1.000
vn -0.000 0.000 1.000
vn -0.000 0.000 1.000
vn -0.000 0.000 1.000
vn -0.000 0.000 1.000
vn -0.000 0.000 1.000
vn -0.000 0.000 1.000
vn -0.996 -0.087 -0.000
vn 0.000 -0.000 -1.000
vn 0.000 -0.000 -1.000
vn 0.000 -0.000 -1.000
vn 0.000 -0.000 -1.000
vn 0.000 -0.000 -1.000
vn 0.000 -0.000 -1.000
vn 0.000 -0.000 -1.000
vn 0.000 -0.000 -1.000
vn 0.000 -0.000 -1.000
vn 0.000 -0.000 -1.000
vn 0.000 -0.000 -1.000
vn -0.000 0.000 -1.000
vn -0.000 0.000 -1.000
vn -0.000 0.000 -1.000
vn -0.000 0.000 -1.000
vn -0.000 0.000 -1.000
vn -0.000 0.000 -1.000
vn -0.000 0.000 -1.000
vn -0.000 0.000 -1.000
vn -0.000 0.000 -1.000
vn 0.000 0.000 -1.000
vn -0.000 0.000 -1.000
vn 0.997 0.071 0.000
vn -0.966 -0.259 -0.000
vn -0.966 -0.259 -0.000
vn 0.966 -0.259 -0.000
vn -0.000 0.000 1.000
vn 0.000 0.000 1.000
vn 0.966 -0.259 -0.000
vn -0.000 0.000 1.000
vn 0.977 0.213 0.000
vn 0.977 0.213 0.000
vn -0.977 0.213 0.000
vn -0.977 0.213 0.000
vn 0.000 0.000 1.000
vn -0.906 -0.423 -0.000
vn -0.906 -0.423 -0.000
vn 0.906 -0.423 -0.000
vn -0.000 0.000 1.000
vn 0.000 0.000 1.000
vn 0.906 -0.423 -0.000
vn -0.000 0.000 1.000
vn 0.000 0.000 1.000
vn -0.819 -0.574 -0.000
vn -0.819 -0.574 -0.000
vn 0.819 -0.574 -0.000
vn -0.000 0.000 1.000
vn 0.000 0.000 1.000
vn 0.000 0.000 1.000
vn 0.819 -0.574 -0.000
vn -0.000 0.000 1.000
vn 0.000 0.000 1.000
vn 0.937 0.349 0.000
vn 0.937 0.349 0.000
vn -0.937 0.349 0.000
vn -0.937 0.349 0.000
vn -0.707 -0.707 -0.000
vn -0.707 -0.707 -0.000
vn 0.707 -0.707 -0.000
vn -0.000 0.000 1.000
vn 0.000 0.000 1.000
vn 0.707 -0.707 -0.000
vn -0.000 0.000 1.000
vn 0.000 0.000 1.000
vn -0.574 -0.819 -0.000
vn -0.574 -0.819 -0.000
vn 0.574 -0.819 -0.000
vn -0.000 0.000 1.000
vn 0.000 0.000 1.000
vn 0.574 -0.819 -0.000
vn -0.000 0.000 1.000
vn 0.000 0.000 1.000
vn 0.878 0.479 0.000
vn 0.878 0.479 0.000
vn -0.878 0.479 0.000
vn -0.878 0.479 0.000
vn -0.423 -0.906 -0.000
vn -0.423 -0.906 -0.000
vn 0.423 -0.906 -0.000
vn -0.000 0.000 1.000
vn 0.000 0.000 1.000
vn 0.423 -0.906 -0.000
vn 0.000 0.000 1.000
vn -0.000 0.000 1.000
vn -0.000 0.000 1.000
vn -0.259 -0.966 -0.000
vn -0.259 -0.966 -0.000
vn 0.259 -0.966 -0.000
vn -0.000 0.000 1.000
vn 0.000 0.000 1.000
vn 0.000 0.000 1.000
vn 0.259 -0.966 -0.000
vn -0.000 0.000 1.000
vn 0.000 0.000 1.000
vn -0.087 -0.996 -0.000
vn -0.087 -0.996 -0.000
vn 0.087 -0.996 -0.000
vn -0.000 -0.000 1.000
vn 0.000 0.000 1.000
vn 0.087 -0.996 -0.000
vn -0.000 0.000 1.000
vn 0.000 0.000 1.000
vn -0.000 0.000 1.000
vn 0.801 0.599 0.000
vn 0.801 0.599 0.000
vn -0.801 0.599 0.000
vn -0.801 0.599 0.000
vn 0.707 0.707 0.000
vn 0.707 0.707 0.000
vn -0.707 0.707 0.000
vn -0.707 0.707 0.000
vn 0.599 0.801 0.000
vn 0.599 0.801 0.000
vn -0.599 0.801 0.000
vn -0.599 0.801 0.000
vn 0.479 0.878 0.000
vn 0.479 0.878 0.000
vn -0.479 0.878 0.000
vn -0.479 0.878 0.000
vn 0.349 0.937 0.000
vn 0.349 0.937 0.000
vn -0.349 0.937 0.000
vn -0.349 0.937 0.000
vn 0.213 0.977 0.000
vn 0.213 0.977 0.000
vn -0.213 0.977 0.000
vn -0.213 0.977 0.000
vn 0.071 0.997 0.000
vn 0.071 0.997 0.000
vn -0.071 0.997 0.000
vn -0.071 0.997 0.000

# Facets
f 1//1 3//1 2//1
f 4//2 3//2 1//2
f 5//3 3//3 4//3
f 2//4 3//4 6//4
f 6//5 3//5 5//5
f 7//6 4//6 1//6
f 8//7 4//7 7//7
f 9//8 4//8 8//8
f 5//9 4//9 9//9
f 10//10 2//10 11//10
f 1//11 2//11 10//11
f 11//12 2//12 6//12
f 12//13 5//13 9//13
f 6//14 5//14 12//14
f 13//15 1//15 10//15
f 7//16 1//16 13//16
f 12//17 9//17 14//17
f 15//18 9//18 8//18
f 14//19 9//19 15//19
f 16//20 11//20 17//20
f 10//21 11//21 16//21
f 17//22 11//22 6//22
f 18//23 12//23 14//23
f 6//24 12//24 18//24
f 19//25 10//25 16//25
f 13//26 10//26 19//26
f 18//27 14//27 20//27
f 20//28 14//28 15//28
f 21//29 17//29 22//29
f 16//30 17//30 21//30
f 22//31 17//31 6//31
f 23//32 18//32 20//32
f 6//33 18//33 23//33
f 19//34 16//34 24//34
f 24//35 16//35 21//35
f 23//36 20//36 25//36
f 26//37 20//37 15//37
f 25//38 20//38 26//38
f 27//39 22//39 28//39
f 21//40 22//40 27//40
f 28//41 22//41 6//41
f 29//42 23//42 25//42
f 6//43 23//43 29//43
f 24//44 21//44 27//44
f 29//45 25//45 30//45
f 31//46 25//46 26//46
f 30//47 25//47 31//47
f 32//48 28//48 33//48
f 27//49 28//49 32//49
f 33//50 28//50 6//50
f 34//51 29//51 30//51
f 6//52 29//52 34//52
f 35//53 27//53 32//53
f 24//54 27//54 35//54
f 34//55 30//55 36//55
f 37//56 30//56 31//56
f 36//57 30//57 37//57
f 38//58 33//58 39//58
f 32//59 33//59 38//59
f 39//60 33//60 6//60
f 40//61 34//61 36//61
f 6//62 34//62 40//62
f 41//63 32//63 38//63
f 35//64 32//64 41//64
f 40//65 36//65 42//65
f 43//66 36//66 37//66
f 42//67 36//67 43//67
f 44//68 39//68 45//68
f 38//69 39//69 44//69
f 45//70 39//70 6//70
f 46//71 40//71 42//71
f 6//72 40//72 46//72
f 47//73 38//73 44//73
f 41//74 38//74 47//74
f 46//75 42//75 48//75
f 48//76 42//76 43//76
f 49//77 51//77 50//77
f 52//78 51//78 49//78
f 7//79 51//79 52//79
f 50//80 51//80 13//80
f 13//81 51//81 7//81
f 8//82 7//82 52//82
f 49//83 50//83 53//83
f 53//84 50//84 19//84
f 19//85 50//85 13//85
f 54//86 52//86 49//86
f 8//87 52//87 54//87
f 15//88 8//88 54//88
f 49//89 53//89 55//89
f 55//90 53//90 24//90
f 24//91 53//91 19//91
f 56//92 54//92 49//92
f 15//93 54//93 56//93
f 26//94 15//94 56//94
f 49//95 55//95 57//95
f 57//96 55//96 35//96
f 35//97 55//97 24//97
f 58//98 56//98 49//98
f 26//99 56//99 58//99
f 31//100 26//100 58//100
f 59//101 45//101 60//101
f 44//102 45//102 59//102
f 60//103 45//103 6//103
f 61//104 46//104 48//104
f 6//105 46//105 61//105
f 47//106 44//106 62//106
f 62//107 44//107 59//107
f 61//108 48//108 63//108
f 64//109 48//109 43//109
f 63//110 48//110 64//110
f 49//111 57//111 65//111
f 65//112 57//112 41//112
f 41//113 57//113 35//113
f 66//114 58//114 49//114
f 31//115 58//115 66//115
f 37//116 31//116 66//116
f 49//117 65//117 67//117
f 67//118 65//118 47//118
f 47//119 65//119 41//119
f 68//120 66//120 49//120
f 37//121 66//121 68//121
f 43//122 37//122 68//122
f 69//123 60//123 70//123
f 59//124 60//124 69//124
f 70//125 60//125 6//125
f 71//126 61//126 63//126
f 6//127 61//127 71//127
f 62//128 59//128 69//128
f 71//129 63//129 72//129
f 73//130 63//130 64//130
f 72//131 63//131 73//131
f 49//132 67//132 74//132
f 74//133 67//133 62//133
f 62//134 67//134 47//134
f 75//135 68//135 49//135
f 43//136 68//136 75//136
f 64//137 43//137 75//137
f 49//138 74//138 76//138
f 76//139 74//139 77//139
f 77//140 74//140 62//140
f 78//141 75//141 49//141
f 64//142 75//142 78//142
f 77//143 62//143 69//143
f 73//144 64//144 78//144
f 79//145 70//145 80//145
f 69//146 70//146 79//146
f 80//147 70//147 6//147
f 81//148 71//148 72//148
f 6//149 71//149 81//149
f 77//150 69//150 79//150
f 81//151 72//151 82//151
f 83//152 72//152 73//152
f 82//153 72//153 83//153
f 49//154 76//154 84//154
f 84//155 76//155 85//155
f 85//156 76//156 77//156
f 86//157 78//157 49//157
f 73//158 78//158 86//158
f 85//159 77//159 79//159
f 83//160 73//160 86//160
f 82//161 83//161 87//161
f 88//162 83//162 86//162
f 87//163 83//163 88//163
f 81//164 82//164 89//164
f 89//165 82//165 90//165
f 91//166 79//166 80//166
f 92//167 85//167 91//167
f 91//168 85//168 79//168
f 84//169 85//169 92//169
f 90//170 82//170 87//170
f 88//171 86//171 49//171
f 93//172 49//172 94//172
f 94//173 49//173 84//173
f 95//174 49//174 96//174
f 96//175 49//175 97//175
f 97//176 49//176 93//176
f 98//177 49//177 99//177
f 99//178 49//178 100//178
f 100//179 49//179 95//179
f 101//180 49//180 102//180
f 102//181 49//181 103//181
f 103//182 49//182 98//182
f 104//183 49//183 105//183
f 105//184 49//184 106//184
f 106//185 49//185 101//185
f 88//186 49//186 107//186
f 107//187 49//187 108//187
f 108//188 49//188 104//188
f 94//189 84//189 92//189
f 109//190 6//190 89//190
f 89//191 6//191 81//191
f 110//192 6//192 111//192
f 111//193 6//193 112//193
f 112//194 6//194 109//194
f 113//195 6//195 114//195
f 114//196 6//196 115//196
f 115//197 6//197 110//197
f 116//198 6//198 117//198
f 117//199 6//199 118//199
f 118//200 6//200 113//200
f 119//201 6//201 120//201
f 120//202 6//202 121//202
f 121//203 6//203 116//203
f 122//204 6//204 123//204
f 123//205 6//205 124//205
f 124//206 6//206 119//206
f 125//207 6//207 126//207
f 126//208 6//208 127//208
f 127//209 6//209 122//209
f 80//210 6//210 128//210
f 128//211 6//211 125//211
f 91//212 80//212 128//212
f 93//213 94//213 129//213
f 129//214 94//214 92//214
f 87//215 88//215 107//215
f 129//216 92//216 130//216
f 130//217 92//217 91//217
f 131//218 87//218 107//218
f 90//219 87//219 131//219
f 130//220 128//220 125//220
f 91//221 128//221 130//221
f 109//222 89//222 90//222
f 109//223 90//223 132//223
f 132//224 90//224 131//224
f 97//225 93//225 133//225
f 133//226 93//226 129//226
f 131//227 107//227 108//227
f 133//228 129//228 134//228
f 134//229 129//229 130//229
f 135//230 131//230 108//230
f 132//231 131//231 136//231
f 136//232 131//232 135//232
f 96//233 97//233 137//233
f 137//234 97//234 133//234
f 135//235 108//235 104//235
f 137//236 133//236 138//236
f 138//237 133//237 139//237
f 139//238 133//238 134//238
f 140//239 135//239 104//239
f 136//240 135//240 141//240
f 141//241 135//241 140//241
f 134//242 125//242 126//242
f 130//243 125//243 134//243
f 112//244 109//244 132//244
f 112//245 132//245 136//245
f 95//246 96//246 142//246
f 142//247 96//247 137//247
f 140//248 104//248 105//248
f 142//249 137//249 143//249
f 143//250 137//250 138//250
f 144//251 140//251 105//251
f 141//252 140//252 145//252
f 145//253 140//253 144//253
f 100//254 95//254 146//254
f 146//255 95//255 142//255
f 144//256 105//256 106//256
f 146//257 142//257 147//257
f 147//258 142//258 143//258
f 148//259 144//259 106//259
f 145//260 144//260 149//260
f 149//261 144//261 148//261
f 139//262 126//262 127//262
f 134//263 126//263 139//263
f 111//264 112//264 136//264
f 111//265 136//265 141//265
f 99//266 100//266 150//266
f 150//267 100//267 146//267
f 148//268 106//268 101//268
f 150//269 146//269 151//269
f 151//270 146//270 147//270
f 152//271 148//271 101//271
f 153//272 148//272 152//272
f 149//273 148//273 154//273
f 154//274 148//274 153//274
f 98//275 99//275 155//275
f 155//276 99//276 150//276
f 152//277 101//277 102//277
f 155//278 150//278 156//278
f 156//279 150//279 157//279
f 157//280 150//280 151//280
f 158//281 152//281 102//281
f 153//282 152//282 159//282
f 159//283 152//283 158//283
f 103//284 98//284 160//284
f 160//285 98//285 155//285
f 158//286 102//286 103//286
f 160//287 155//287 161//287
f 161//288 155//288 156//288
f 160//289 158//289 103//289
f 159//290 158//290 162//290
f 162//291 158//291 160//291
f 162//292 160//292 161//292
f 138//293 127//293 122//293
f 139//294 127//294 138//294
f 110//295 111//295 141//295
f 110//296 141//296 145//296
f 143//297 122//297 123//297
f 138//298 122//298 143//298
f 115//299 110//299 145//299
f 115//300 145//300 149//300
f 147//301 123//301 124//301
f 143//302 123//302 147//302
f 114//303 115//303 149//303
f 114//304 149//304 154//304
f 151//305 124//305 119//305
f 147//306 124//306 151//306
f 113//307 114//307 154//307
f 113//308 154//308 153//308
f 157//309 119//309 120//309
f 151//310 119//310 157//310
f 118//311 113//311 153//311
f 118//312 153//312 159//312
f 156//313 120//313 121//313
f 157//314 120//314 156//314
f 117//315 118//315 159//315
f 117//316 159//316 162//316
f 161//317 121//317 116//317
f 156//318 121//318 161//318
f 116//319 117//319 162//319
f 116//320 162//320 161//320

# Thank you for using Spin 3D

